<svg width="31" height="26" viewBox="0 0 31 26" fill="none" xmlns="http://www.w3.org/2000/svg">
<path d="M0.814796 12.9714C0.814796 13.5835 1.06717 14.1705 1.51638 14.6033C1.9656 15.0361 2.57487 15.2793 3.21016 15.2793H22.1814L15.8896 21.3413C15.4665 21.7788 15.2361 22.3574 15.2471 22.9553C15.258 23.5532 15.5094 24.1237 15.9483 24.5465C16.3872 24.9694 16.9793 25.2116 17.5998 25.2221C18.2204 25.2327 18.821 25.0107 19.275 24.6031L29.6549 14.6023C30.1035 14.1696 30.3555 13.583 30.3555 12.9714C30.3555 12.3598 30.1035 11.7733 29.6549 11.3405L19.275 1.3398C19.0557 1.11305 18.7913 0.931185 18.4975 0.805047C18.2036 0.678908 17.8865 0.611082 17.5648 0.605614C17.2432 0.600147 16.9237 0.65715 16.6255 0.773223C16.3272 0.889296 16.0563 1.06206 15.8288 1.28121C15.6013 1.50036 15.422 1.76141 15.3015 2.04878C15.1811 2.33615 15.1219 2.64395 15.1276 2.95383C15.1333 3.26371 15.2037 3.56931 15.3346 3.85241C15.4655 4.13551 15.6543 4.3903 15.8896 4.60158L22.1814 10.6636H3.21016C1.88792 10.6636 0.814796 11.6975 0.814796 12.9714Z" fill="#3E5245"/>
</svg>
