<svg width="46" height="33" viewBox="0 0 46 33" fill="none" xmlns="http://www.w3.org/2000/svg">
<path d="M0 12.375C0 5.53781 5.51384 0 12.3214 0H13.1429C14.9603 0 16.4286 1.47469 16.4286 3.3C16.4286 5.12531 14.9603 6.6 13.1429 6.6H12.3214C9.14866 6.6 6.57143 9.18844 6.57143 12.375V13.2H13.1429C16.7674 13.2 19.7143 16.1597 19.7143 19.8V26.4C19.7143 30.0403 16.7674 33 13.1429 33H6.57143C2.94688 33 0 30.0403 0 26.4V12.375ZM26.2857 12.375C26.2857 5.53781 31.7996 0 38.6071 0H39.4286C41.246 0 42.7143 1.47469 42.7143 3.3C42.7143 5.12531 41.246 6.6 39.4286 6.6H38.6071C35.4344 6.6 32.8571 9.18844 32.8571 12.375V13.2H39.4286C43.0531 13.2 46 16.1597 46 19.8V26.4C46 30.0403 43.0531 33 39.4286 33H32.8571C29.2326 33 26.2857 30.0403 26.2857 26.4V12.375Z" fill="#3E5245"/>
</svg>
