<svg width="48" height="48" viewBox="0 0 48 48" fill="none" xmlns="http://www.w3.org/2000/svg">
<path d="M35.7411 13.153C35.5218 13.153 35.3114 13.0659 35.1563 12.9108C35.0012 12.7557 34.9141 12.5453 34.9141 12.326C34.9141 12.1066 35.0012 11.8963 35.1563 11.7411C35.3114 11.586 35.5218 11.4989 35.7411 11.4989M35.7411 13.153C35.9605 13.153 36.1709 13.0659 36.326 12.9108C36.4811 12.7557 36.5682 12.5453 36.5682 12.326C36.5682 12.1066 36.4811 11.8963 36.326 11.7411C36.1709 11.586 35.9605 11.4989 35.7411 11.4989" stroke="#8EB69B" stroke-width="3" stroke-linecap="round" stroke-linejoin="round"/>
<path d="M4.39198 12.4484C4.39198 10.1908 5.2888 8.02567 6.88515 6.42932C8.4815 4.83298 10.6466 3.93616 12.9042 3.93616H35.6056C36.7235 3.93616 37.8304 4.15633 38.8631 4.58411C39.8959 5.01189 40.8343 5.63889 41.6247 6.42932C42.4151 7.21976 43.0421 8.15813 43.4699 9.19088C43.8977 10.2236 44.1179 11.3305 44.1179 12.4484V35.1498C44.1179 37.4074 43.221 39.5725 41.6247 41.1688C40.0283 42.7652 37.8632 43.662 35.6056 43.662H12.9009C10.6433 43.662 8.47819 42.7652 6.88184 41.1688C5.28549 39.5725 4.38867 37.4074 4.38867 35.1498V12.4451L4.39198 12.4484Z" stroke="#8EB69B" stroke-width="7" stroke-linecap="round" stroke-linejoin="round"/>
<path d="M15.8184 23.799C15.8184 24.9069 16.0366 26.0039 16.4605 27.0274C16.8845 28.0509 17.5059 28.9809 18.2892 29.7643C19.0726 30.5476 20.0026 31.169 21.0261 31.593C22.0496 32.0169 23.1466 32.2351 24.2545 32.2351C25.3623 32.2351 26.4593 32.0169 27.4829 31.593C28.5064 31.169 29.4364 30.5476 30.2197 29.7643C31.0031 28.9809 31.6245 28.0509 32.0484 27.0274C32.4724 26.0039 32.6906 24.9069 32.6906 23.799C32.6906 21.5616 31.8018 19.4159 30.2197 17.8338C28.6376 16.2517 26.4919 15.3629 24.2545 15.3629C22.0171 15.3629 19.8713 16.2517 18.2892 17.8338C16.7072 19.4159 15.8184 21.5616 15.8184 23.799Z" stroke="#8EB69B" stroke-width="3" stroke-linecap="round" stroke-linejoin="round"/>
</svg>
