<svg width="23" height="33" viewBox="0 0 23 33" fill="none" xmlns="http://www.w3.org/2000/svg">
<path d="M21.4534 6.47867C23.0963 9.99947 22.7235 14.144 20.9044 17.5122C19.412 20.2757 17.1849 22.5612 15.3495 25.0911C14.5105 26.2494 13.6633 27.4536 13.0872 28.7726C12.896 29.2113 12.7307 29.6609 12.568 30.1118C12.404 30.5613 12.2644 31.0203 12.1071 31.4726C11.9594 31.8965 11.7872 32.396 11.2572 32.4H11.2477C10.6161 32.3987 10.4629 31.6845 10.3056 31.2026C9.92068 30.0227 9.5181 28.89 8.92438 27.7938C8.23307 26.5194 7.37231 25.3409 6.49801 24.188L21.4534 6.47867ZM6.56714 10.4018L1.20065 16.7562C2.18205 18.8352 3.66905 20.6213 5.09234 22.3992C5.4276 22.8177 5.76061 23.2389 6.09135 23.6628L12.8472 15.6641L12.8079 15.6776C10.448 16.4889 7.80472 15.2847 6.85451 12.9951C6.72477 12.6842 6.62976 12.3601 6.57121 12.0285C6.48581 11.4386 6.46683 11.0012 6.56578 10.4112L6.56714 10.4018ZM2.42875 4.25117L2.42468 4.25657C-0.214504 7.58567 -0.667246 12.1946 0.910574 16.0961L7.39671 8.41592L7.31809 8.34842L2.42875 4.25117ZM14.8575 0.588625L9.655 6.74867L9.6916 6.73517C11.8604 5.99132 14.3044 6.93767 15.4119 8.93027C15.6504 9.36092 15.8497 9.85232 15.9229 10.341C16.0151 10.9431 16.0381 11.3846 15.9392 11.988L15.9351 12.0096L21.1349 5.85227C19.7762 3.38383 17.5424 1.50851 14.8697 0.592675L14.8575 0.588625ZM7.81557 7.92182L14.1811 0.384775L14.1174 0.368575C13.1755 0.121842 12.2054 -0.00204337 11.2315 2.54881e-05C9.65448 0.0148173 8.09759 0.354164 6.65856 0.996757C5.21953 1.63935 3.92944 2.57131 2.86929 3.73412L2.8476 3.75842L7.81557 7.92182Z" fill="#DAF1DD"/>
</svg>
