<svg width="30" height="26" viewBox="0 0 30 26" fill="none" xmlns="http://www.w3.org/2000/svg">
<path d="M0.314796 12.9714C0.314796 13.5835 0.567165 14.1705 1.01638 14.6033C1.4656 15.0361 2.07487 15.2793 2.71016 15.2793H21.6814L15.3896 21.3413C14.9665 21.7788 14.7361 22.3574 14.7471 22.9553C14.758 23.5532 15.0094 24.1236 15.4483 24.5465C15.8872 24.9693 16.4793 25.2115 17.0998 25.2221C17.7204 25.2326 18.321 25.0107 18.775 24.603L29.1549 14.6023C29.6035 14.1696 29.8555 13.583 29.8555 12.9714C29.8555 12.3598 29.6035 11.7732 29.1549 11.3405L18.775 1.33977C18.5557 1.11302 18.2913 0.931155 17.9975 0.805016C17.7036 0.678877 17.3865 0.611051 17.0648 0.605584C16.7432 0.600116 16.4237 0.657119 16.1255 0.773192C15.8272 0.889266 15.5563 1.06203 15.3288 1.28118C15.1013 1.50033 14.922 1.76138 14.8015 2.04875C14.6811 2.33612 14.6219 2.64392 14.6276 2.9538C14.6333 3.26368 14.7037 3.56928 14.8346 3.85238C14.9655 4.13547 15.1543 4.39026 15.3896 4.60155L21.6814 10.6635H2.71016C1.38792 10.6635 0.314796 11.6975 0.314796 12.9714Z" fill="#3E5245"/>
</svg>
