<svg width="30" height="26" viewBox="0 0 30 26" fill="none" xmlns="http://www.w3.org/2000/svg">
<path d="M29.6852 12.9714C29.6852 13.5835 29.4328 14.1705 28.9836 14.6033C28.5344 15.0361 27.9251 15.2793 27.2898 15.2793H8.31859L14.6104 21.3413C15.0335 21.7788 15.2639 22.3574 15.2529 22.9553C15.242 23.5532 14.9906 24.1236 14.5517 24.5465C14.1128 24.9693 13.5207 25.2115 12.9002 25.2221C12.2796 25.2326 11.679 25.0107 11.225 24.603L0.845063 14.6023C0.39649 14.1696 0.144531 13.583 0.144531 12.9714C0.144531 12.3598 0.39649 11.7732 0.845063 11.3405L11.225 1.33977C11.4443 1.11302 11.7087 0.931155 12.0025 0.805016C12.2964 0.678877 12.6135 0.611051 12.9352 0.605584C13.2568 0.600116 13.5763 0.657119 13.8745 0.773192C14.1728 0.889266 14.4437 1.06203 14.6712 1.28118C14.8987 1.50033 15.078 1.76138 15.1985 2.04875C15.3189 2.33612 15.3781 2.64392 15.3724 2.9538C15.3667 3.26368 15.2963 3.56928 15.1654 3.85238C15.0345 4.13548 14.8457 4.39026 14.6104 4.60155L8.31859 10.6635H27.2898C28.6121 10.6635 29.6852 11.6975 29.6852 12.9714Z" fill="#3E5245"/>
</svg>
