<svg width="40" height="38" viewBox="0 0 40 38" fill="none" xmlns="http://www.w3.org/2000/svg">
<path d="M15.103 25.7017C16.0555 25.7019 16.9775 26.0287 17.7076 26.6249L17.9713 26.8602L19.9997 28.8373L22.0282 26.8602C22.7017 26.2038 23.5907 25.7993 24.5395 25.7175L24.8965 25.7017H33.059C34.3541 25.7016 35.6153 26.1042 36.6594 26.8509C37.7035 27.5976 38.476 28.6494 38.8645 29.8535L38.9639 30.1935L39.9092 33.8787C40.0159 34.2947 40.0287 34.7282 39.9469 35.1495C39.8651 35.5708 39.6905 35.9697 39.4352 36.3189C39.1799 36.6681 38.85 36.9591 38.4682 37.172C38.0864 37.3849 37.6617 37.5146 37.2235 37.5521L36.9578 37.564H3.04174C2.60193 37.5638 2.16738 37.4708 1.76803 37.2912C1.36867 37.1116 1.01401 36.8498 0.728467 36.5238C0.442927 36.1977 0.2333 35.8152 0.114027 35.4026C-0.00524664 34.99 -0.0313304 34.5572 0.0375728 34.1338L0.0903131 33.8787L1.03558 30.1935C1.34974 28.9689 2.05657 27.8739 3.05326 27.0678C4.04995 26.2618 5.28451 25.7866 6.57736 25.7116L6.94046 25.7017H15.103ZM19.9997 0C21.5901 0 23.369 0.37564 24.8275 0.773027C28.0649 1.65281 29.9839 4.52152 30.132 7.52466L30.1421 7.9003V15.8223C30.1421 18.9619 28.2009 22.0362 24.8275 22.9516C23.369 23.347 21.5901 23.7246 19.9997 23.7246C18.4094 23.7246 16.6305 23.349 15.172 22.9516C11.9345 22.0718 10.0156 19.2031 9.86754 16.2L9.8574 15.8243V7.9003C9.8574 4.76272 11.7986 1.68642 15.172 0.77105C16.6305 0.377617 18.4094 0 19.9997 0Z" fill="#848484"/>
</svg>
