<svg width="38" height="37" viewBox="0 0 38 37" fill="none" xmlns="http://www.w3.org/2000/svg">
<g filter="url(#filter0_d_828_1317)">
<path fill-rule="evenodd" clip-rule="evenodd" d="M20.1533 1.32505C19.2395 0.891652 18.1794 0.89165 17.2657 1.32505C16.6331 1.62507 16.1844 2.193 15.7868 2.83487C15.387 3.48025 14.9484 4.35747 14.4022 5.44987L14.4022 5.44991L14.3808 5.49269L13.9406 6.37312C13.5661 7.12219 13.4571 7.3185 13.3204 7.46162C13.1794 7.60923 13.0102 7.72717 12.823 7.80848C12.6414 7.8873 12.4196 7.92164 11.5872 8.01414L11.1876 8.05854L11.1396 8.06387H11.1396C9.82749 8.20965 8.7793 8.32611 7.98574 8.48752C7.20309 8.64672 6.4737 8.88237 5.96312 9.4033C5.23261 10.1486 4.8887 11.1904 5.0319 12.2242C5.13199 12.9467 5.57772 13.5703 6.11177 14.1642C6.65326 14.7663 7.42611 15.484 8.39356 16.3824L8.42891 16.4152L8.8508 16.8069C9.58364 17.4874 9.77154 17.6799 9.87681 17.8849C9.9855 18.0966 10.0434 18.3306 10.0459 18.5686C10.0483 18.7987 9.97027 19.0612 9.63466 20.0178L9.61881 20.063L9.61877 20.0631C9.1235 21.4746 8.73127 22.5925 8.50858 23.4622C8.29224 24.307 8.17103 25.1366 8.45306 25.8549C8.84993 26.8659 9.70974 27.6234 10.7625 27.8899C11.5086 28.0789 12.3092 27.8588 13.1129 27.5418C13.9379 27.2164 14.9826 26.6941 16.2997 26.0355L16.3428 26.014L17.367 25.5018C18.0575 25.1565 18.2461 25.0716 18.4271 25.0376C18.6137 25.0027 18.8053 25.0027 18.9919 25.0376C19.1729 25.0716 19.3614 25.1565 20.0519 25.5018L21.0761 26.014L21.1194 26.0355C22.4365 26.6941 23.4811 27.2164 24.306 27.5418C25.1096 27.8588 25.9103 28.0789 26.6564 27.8899C27.7092 27.6234 28.5691 26.8659 28.9659 25.8549C29.248 25.1366 29.1267 24.307 28.9104 23.4622C28.6877 22.5925 28.2955 21.4746 27.8001 20.063V20.0629L27.7843 20.0178C27.4487 19.0612 27.3707 18.7987 27.373 18.5686C27.3756 18.3306 27.4334 18.0966 27.5422 17.8849C27.6474 17.6799 27.8353 17.4874 28.5682 16.8069L28.99 16.4152L29.0255 16.3822C29.9929 15.4839 30.7658 14.7663 31.3072 14.1642C31.8412 13.5703 32.287 12.9467 32.3871 12.2242C32.5303 11.1904 32.1864 10.1486 31.4558 9.4033C30.9452 8.88237 30.2159 8.64672 29.4332 8.48752C28.6396 8.32611 27.5915 8.20965 26.2794 8.06387L26.2313 8.05854L25.8318 8.01414C24.9994 7.92164 24.7775 7.8873 24.596 7.80848C24.4087 7.72717 24.2396 7.60923 24.0986 7.46162C23.9619 7.3185 23.8529 7.12219 23.4784 6.37311L23.0382 5.4927L23.0167 5.44989C22.4705 4.35747 22.032 3.48025 21.6322 2.83487C21.2347 2.193 20.786 1.62508 20.1533 1.32505Z" fill="white"/>
<path d="M29.0255 16.3822L28.99 16.4152L28.5682 16.8069C27.8353 17.4874 27.6474 17.6799 27.5422 17.8849C27.4334 18.0966 27.3756 18.3306 27.373 18.5686C27.3707 18.7987 27.4487 19.0612 27.7843 20.0178L27.8001 20.0629V20.063C28.2955 21.4746 28.6877 22.5925 28.9104 23.4622C29.1267 24.307 29.248 25.1366 28.9659 25.8549C28.5691 26.8659 27.7092 27.6234 26.6564 27.8899C25.9103 28.0789 25.1096 27.8588 24.306 27.5418C23.4811 27.2164 22.4365 26.6941 21.1194 26.0355L21.0761 26.014L20.0519 25.5018C19.3614 25.1565 19.1729 25.0716 18.9919 25.0376C18.8053 25.0027 18.6137 25.0027 18.4271 25.0376C18.2461 25.0716 18.0575 25.1565 17.367 25.5018L16.3428 26.014L16.2997 26.0355C14.9826 26.6941 13.9379 27.2164 13.1129 27.5418C12.3092 27.8588 11.5086 28.0789 10.7625 27.8899C9.70974 27.6234 8.84993 26.8659 8.45306 25.8549C8.17103 25.1366 8.29224 24.307 8.50858 23.4622C8.73127 22.5925 9.1235 21.4746 9.61877 20.0631L9.61881 20.063L9.63466 20.0178C9.97027 19.0612 10.0483 18.7987 10.0459 18.5686C10.0434 18.3306 9.9855 18.0966 9.87681 17.8849C9.77154 17.6799 9.58364 17.4874 8.8508 16.8069L8.42891 16.4152L8.39356 16.3824C7.42611 15.484 6.65326 14.7663 6.11177 14.1642C5.57772 13.5703 5.13199 12.9467 5.0319 12.2242C4.8887 11.1904 5.23261 10.1486 5.96312 9.4033C6.4737 8.88237 7.20309 8.64672 7.98574 8.48752C8.7793 8.32611 9.82749 8.20965 11.1396 8.06387H11.1396L11.1876 8.05854L11.5872 8.01414C12.4196 7.92164 12.6414 7.8873 12.823 7.80848C13.0102 7.72717 13.1794 7.60923 13.3204 7.46162C13.4571 7.3185 13.5661 7.12219 13.9406 6.37312L14.3808 5.49269L14.4022 5.44991L14.4022 5.44987C14.9484 4.35747 15.387 3.48025 15.7868 2.83487C16.1844 2.193 16.6331 1.62507 17.2657 1.32505C18.1794 0.89165 19.2395 0.891652 20.1533 1.32505C20.786 1.62508 21.2347 2.193 21.6322 2.83487C22.032 3.48025 22.4705 4.35747 23.0167 5.44989L23.0382 5.4927L23.4784 6.37311C23.8529 7.12219 23.9619 7.3185 24.0986 7.46162C24.2396 7.60923 24.4087 7.72717 24.596 7.80848C24.7775 7.8873 24.9994 7.92164 25.8318 8.01414L26.2313 8.05854L26.2794 8.06387C27.5915 8.20965 28.6396 8.32611 29.4332 8.48752C30.2159 8.64672 30.9452 8.88237 31.4558 9.4033C32.1864 10.1486 32.5303 11.1904 32.3871 12.2242C32.287 12.9467 31.8412 13.5703 31.3072 14.1642C30.7658 14.7663 29.9929 15.4839 29.0255 16.3822ZM29.0255 16.3822V16.3822Z" stroke="#FFC250" stroke-width="2"/>
</g>
<defs>
<filter id="filter0_d_828_1317" x="0" y="0" width="37.4199" height="36.9596" filterUnits="userSpaceOnUse" color-interpolation-filters="sRGB">
<feFlood flood-opacity="0" result="BackgroundImageFix"/>
<feColorMatrix in="SourceAlpha" type="matrix" values="0 0 0 0 0 0 0 0 0 0 0 0 0 0 0 0 0 0 127 0" result="hardAlpha"/>
<feOffset dy="4"/>
<feGaussianBlur stdDeviation="2"/>
<feComposite in2="hardAlpha" operator="out"/>
<feColorMatrix type="matrix" values="0 0 0 0 0 0 0 0 0 0 0 0 0 0 0 0 0 0 0.25 0"/>
<feBlend mode="normal" in2="BackgroundImageFix" result="effect1_dropShadow_828_1317"/>
<feBlend mode="normal" in="SourceGraphic" in2="effect1_dropShadow_828_1317" result="shape"/>
</filter>
</defs>
</svg>
