<svg width="30" height="29" viewBox="0 0 30 29" fill="none" xmlns="http://www.w3.org/2000/svg">
<path fill-rule="evenodd" clip-rule="evenodd" d="M16.1533 1.32505C15.2395 0.891652 14.1794 0.89165 13.2657 1.32505C12.6331 1.62507 12.1844 2.193 11.7868 2.83487C11.387 3.48025 10.9484 4.35747 10.4022 5.44987L10.4022 5.44991L10.3808 5.49269L9.94059 6.37312C9.56606 7.12219 9.45715 7.3185 9.32041 7.46162C9.17937 7.60923 9.01025 7.72717 8.82297 7.80848C8.64141 7.8873 8.41956 7.92164 7.58721 8.01414L7.18759 8.05854L7.13964 8.06387H7.13962C5.82749 8.20965 4.7793 8.32611 3.98574 8.48752C3.20309 8.64672 2.4737 8.88237 1.96312 9.4033C1.23261 10.1486 0.888698 11.1904 1.0319 12.2242C1.13199 12.9467 1.57772 13.5703 2.11177 14.1642C2.65326 14.7663 3.42611 15.484 4.39356 16.3824L4.42891 16.4152L4.8508 16.8069C5.58364 17.4874 5.77154 17.6799 5.87681 17.8849C5.9855 18.0966 6.0434 18.3306 6.04589 18.5686C6.04832 18.7987 5.97027 19.0612 5.63466 20.0178L5.61881 20.063L5.61877 20.0631C5.1235 21.4746 4.73127 22.5925 4.50858 23.4622C4.29224 24.307 4.17103 25.1366 4.45306 25.8549C4.84993 26.8659 5.70974 27.6234 6.76255 27.8899C7.5086 28.0789 8.30924 27.8588 9.11289 27.5418C9.93789 27.2164 10.9826 26.6941 12.2997 26.0355L12.3428 26.014L13.367 25.5018C14.0575 25.1565 14.2461 25.0716 14.4271 25.0376C14.6137 25.0027 14.8053 25.0027 14.9919 25.0376C15.1729 25.0716 15.3614 25.1565 16.0519 25.5018L17.0761 26.014L17.1194 26.0355C18.4365 26.6941 19.4811 27.2164 20.306 27.5418C21.1096 27.8588 21.9103 28.0789 22.6564 27.8899C23.7092 27.6234 24.5691 26.8659 24.9659 25.8549C25.248 25.1366 25.1267 24.307 24.9104 23.4622C24.6877 22.5925 24.2955 21.4746 23.8001 20.063V20.0629L23.7843 20.0178C23.4487 19.0612 23.3707 18.7987 23.373 18.5686C23.3756 18.3306 23.4334 18.0966 23.5422 17.8849C23.6474 17.6799 23.8353 17.4874 24.5682 16.8069L24.99 16.4152L25.0255 16.3822V16.3822C25.9929 15.4839 26.7658 14.7663 27.3072 14.1642C27.8412 13.5703 28.287 12.9467 28.3871 12.2242C28.5303 11.1904 28.1864 10.1486 27.4558 9.4033C26.9452 8.88237 26.2159 8.64672 25.4332 8.48752C24.6396 8.32611 23.5915 8.20965 22.2794 8.06387L22.2313 8.05854L21.8318 8.01414C20.9994 7.92164 20.7775 7.8873 20.596 7.80848C20.4087 7.72717 20.2396 7.60923 20.0986 7.46162C19.9619 7.3185 19.8529 7.12219 19.4784 6.37311L19.0382 5.4927L19.0167 5.44989C18.4705 4.35747 18.032 3.48025 17.6322 2.83487C17.2347 2.193 16.786 1.62508 16.1533 1.32505Z" fill="#FFC250"/>
<path d="M25.0255 16.3822L24.99 16.4152L24.5682 16.8069C23.8353 17.4874 23.6474 17.6799 23.5422 17.8849C23.4334 18.0966 23.3756 18.3306 23.373 18.5686C23.3707 18.7987 23.4487 19.0612 23.7843 20.0178L23.8001 20.0629V20.063C24.2955 21.4746 24.6877 22.5925 24.9104 23.4622C25.1267 24.307 25.248 25.1366 24.9659 25.8549C24.5691 26.8659 23.7092 27.6234 22.6564 27.8899C21.9103 28.0789 21.1096 27.8588 20.306 27.5418C19.4811 27.2164 18.4365 26.6941 17.1194 26.0355L17.0761 26.014L16.0519 25.5018C15.3614 25.1565 15.1729 25.0716 14.9919 25.0376C14.8053 25.0027 14.6137 25.0027 14.4271 25.0376C14.2461 25.0716 14.0575 25.1565 13.367 25.5018L12.3428 26.014L12.2997 26.0355C10.9826 26.6941 9.93789 27.2164 9.11289 27.5418C8.30924 27.8588 7.5086 28.0789 6.76255 27.8899C5.70974 27.6234 4.84993 26.8659 4.45306 25.8549C4.17103 25.1366 4.29224 24.307 4.50858 23.4622C4.73127 22.5925 5.1235 21.4746 5.61877 20.0631L5.61881 20.063L5.63466 20.0178C5.97027 19.0612 6.04832 18.7987 6.04589 18.5686C6.0434 18.3306 5.9855 18.0966 5.87681 17.8849C5.77154 17.6799 5.58364 17.4874 4.8508 16.8069L4.42891 16.4152L4.39356 16.3824C3.42611 15.484 2.65326 14.7663 2.11177 14.1642C1.57772 13.5703 1.13199 12.9467 1.0319 12.2242C0.888698 11.1904 1.23261 10.1486 1.96312 9.4033C2.4737 8.88237 3.20309 8.64672 3.98574 8.48752C4.7793 8.32611 5.82749 8.20965 7.13962 8.06387H7.13964L7.18759 8.05854L7.58721 8.01414C8.41956 7.92164 8.64141 7.8873 8.82297 7.80848C9.01025 7.72717 9.17937 7.60923 9.32041 7.46162C9.45715 7.3185 9.56606 7.12219 9.94059 6.37312L10.3808 5.49269L10.4022 5.44991L10.4022 5.44987C10.9484 4.35747 11.387 3.48025 11.7868 2.83487C12.1844 2.193 12.6331 1.62507 13.2657 1.32505C14.1794 0.89165 15.2395 0.891652 16.1533 1.32505C16.786 1.62508 17.2347 2.193 17.6322 2.83487C18.032 3.48025 18.4705 4.35747 19.0167 5.44989L19.0382 5.4927L19.4784 6.37311C19.8529 7.12219 19.9619 7.3185 20.0986 7.46162C20.2396 7.60923 20.4087 7.72717 20.596 7.80848C20.7775 7.8873 20.9994 7.92164 21.8318 8.01414L22.2313 8.05854L22.2794 8.06387C23.5915 8.20965 24.6396 8.32611 25.4332 8.48752C26.2159 8.64672 26.9452 8.88237 27.4558 9.4033C28.1864 10.1486 28.5303 11.1904 28.3871 12.2242C28.287 12.9467 27.8412 13.5703 27.3072 14.1642C26.7658 14.7663 25.9929 15.4839 25.0255 16.3822ZM25.0255 16.3822V16.3822Z" stroke="#FFC250" stroke-width="2"/>
</svg>
